<svg id="Capa_1" enable-background="new 0 0 512 512" height="512" viewBox="0 0 512 512" width="512" xmlns="http://www.w3.org/2000/svg"><g><g><g><path d="m442.401 512h-372.802c-5.523 0-9.999-4.477-9.999-9.999v-403.006l5-14.343h382.801l5 14.343v403.006c-.001 5.522-4.478 9.999-10 9.999z" fill="#d3effb"/></g><g><path d="m447.401 84.652h-32.601v379.748c0 5.523-4.477 9.999-9.999 9.999h-345.201v27.601c0 5.523 4.477 9.999 9.999 9.999h372.802c5.523 0 9.999-4.477 9.999-9.999v-403.005z" fill="#b1e4f9"/></g><g><path d="m452.4 98.995h-392.8v-88.995c0-5.523 4.477-10 10-10h372.8c5.523 0 10 4.477 10 10z" fill="#5766cb"/></g><g><path d="m442.401 0h-27.601v98.995h37.6v-88.996c0-5.522-4.477-9.999-9.999-9.999z" fill="#3d4fc3"/></g><g><circle cx="107.535" cy="49.216" fill="#dd636e" r="14.624"/></g><g><circle cx="152.008" cy="49.216" fill="#ffd064" r="14.624"/></g><g><circle cx="196.481" cy="49.216" fill="#b1e4f9" r="14.624"/></g></g><g><circle cx="250.599" cy="293.826" fill="#b1e4f9" r="147.966"/></g><g><path d="m238.463 448.8c-.204 0-.409-.008-.615-.024-5.108-.415-10.249-1.09-15.28-2.006-4.075-.742-6.776-4.647-6.034-8.722.742-4.076 4.647-6.772 8.722-6.035 4.546.828 9.191 1.437 13.807 1.812 4.128.335 7.203 3.954 6.868 8.082-.319 3.922-3.601 6.893-7.468 6.893zm34.131-1.13c-3.652 0-6.852-2.672-7.408-6.392-.612-4.096 2.212-7.914 6.309-8.526 4.585-.685 9.178-1.605 13.653-2.737 4.016-1.009 8.094 1.417 9.109 5.433 1.016 4.015-1.417 8.093-5.432 9.109-4.954 1.252-10.039 2.271-15.112 3.03-.377.055-.751.083-1.119.083zm-81.371-10.77c-1.006 0-2.028-.203-3.009-.634-4.685-2.055-9.326-4.372-13.793-6.887-3.609-2.031-4.888-6.604-2.856-10.214 2.033-3.609 6.606-4.887 10.214-2.855 4.036 2.271 8.228 4.365 12.46 6.221 3.793 1.664 5.519 6.088 3.855 9.88-1.234 2.812-3.985 4.489-6.871 4.489zm127.695-4.285c-2.705 0-5.319-1.469-6.656-4.034-1.915-3.673-.491-8.202 3.182-10.118 4.1-2.139 8.143-4.508 12.014-7.044 3.464-2.27 8.113-1.299 10.383 2.166 2.269 3.465 1.3 8.113-2.165 10.382-4.284 2.806-8.758 5.428-13.297 7.795-1.108.578-2.293.853-3.461.853zm-168.464-22.361c-1.815 0-3.634-.654-5.075-1.979-3.765-3.464-7.404-7.158-10.814-10.98-2.758-3.09-2.488-7.831.602-10.588 3.091-2.759 7.832-2.489 10.589.603 3.084 3.455 6.373 6.795 9.777 9.925 3.049 2.805 3.247 7.548.443 10.597-1.479 1.606-3.497 2.422-5.522 2.422zm207.35-6.943c-1.858 0-3.718-.685-5.17-2.067-3-2.856-3.117-7.603-.262-10.603 3.188-3.349 6.248-6.9 9.095-10.553 2.546-3.267 7.257-3.853 10.525-1.306 3.267 2.546 3.852 7.258 1.306 10.526-3.149 4.041-6.535 7.969-10.062 11.674-1.473 1.548-3.451 2.329-5.432 2.329zm-237.299-31.444c-2.66 0-5.237-1.418-6.597-3.921-2.447-4.503-4.693-9.177-6.677-13.894-1.606-3.818.187-8.215 4.006-9.821 3.82-1.605 8.215.187 9.821 4.005 1.791 4.26 3.82 8.482 6.03 12.55 1.977 3.639.63 8.192-3.01 10.169-1.137.619-2.364.912-3.573.912zm264.63-8.867c-1.046 0-2.109-.221-3.123-.686-3.764-1.727-5.416-6.179-3.688-9.944 1.932-4.21 3.672-8.56 5.171-12.929 1.345-3.918 5.612-6.005 9.528-4.659 3.918 1.345 6.004 5.61 4.659 9.528-1.661 4.839-3.587 9.655-5.726 14.316-1.262 2.751-3.98 4.374-6.821 4.374zm-280.492-37.177c-3.6 0-6.777-2.599-7.388-6.268-.839-5.038-1.437-10.187-1.776-15.306-.274-4.133 2.854-7.706 6.987-7.979 4.133-.296 7.705 2.854 7.979 6.987.307 4.627.847 9.282 1.605 13.833.681 4.086-2.079 7.95-6.165 8.63-.418.07-.833.103-1.242.103zm293.215-9.848c-.246 0-.493-.013-.743-.037-4.122-.405-7.135-4.075-6.73-8.197.451-4.593.68-9.275.68-13.916v-.315c0-4.142 3.358-7.5 7.5-7.5s7.5 3.357 7.5 7.5v.28c0 5.165-.253 10.34-.752 15.418-.381 3.873-3.644 6.767-7.455 6.767zm-293.246-38.85c-.405 0-.815-.032-1.227-.101-4.087-.673-6.855-4.531-6.182-8.618.832-5.057 1.928-10.127 3.257-15.069 1.076-4 5.19-6.37 9.19-5.294 4 1.075 6.37 5.19 5.294 9.19-1.201 4.462-2.19 9.041-2.942 13.608-.604 3.676-3.784 6.284-7.39 6.284zm289.963-10.045c-3.397 0-6.474-2.324-7.291-5.773-1.065-4.498-2.371-8.996-3.882-13.367-1.352-3.915.725-8.185 4.639-9.538 3.917-1.351 8.186.725 9.538 4.639 1.673 4.843 3.12 9.826 4.3 14.809.955 4.03-1.538 8.072-5.569 9.026-.581.138-1.163.204-1.735.204zm-274.222-36.039c-1.205 0-2.427-.29-3.561-.904-3.643-1.971-4.999-6.521-3.029-10.165 2.435-4.502 5.126-8.935 7.997-13.178 2.322-3.43 6.985-4.328 10.414-2.007 3.43 2.321 4.329 6.984 2.007 10.414-2.594 3.833-5.025 7.839-7.225 11.907-1.357 2.51-3.938 3.933-6.603 3.933zm255.312-8.832c-2.483 0-4.913-1.232-6.341-3.485-2.474-3.903-5.176-7.732-8.031-11.381-2.552-3.262-1.976-7.975 1.286-10.528 3.263-2.554 7.976-1.976 10.528 1.286 3.159 4.037 6.148 8.274 8.885 12.592 2.218 3.499 1.179 8.132-2.319 10.35-1.244.789-2.634 1.166-4.008 1.166zm-225.414-29.622c-2.02 0-4.034-.811-5.512-2.412-2.809-3.044-2.62-7.789.423-10.598 3.761-3.472 7.739-6.797 11.824-9.882 3.305-2.498 8.007-1.841 10.504 1.464 2.496 3.305 1.841 8.008-1.464 10.504-3.693 2.79-7.29 5.796-10.69 8.935-1.442 1.331-3.266 1.989-5.085 1.989zm192.938-6.681c-1.648 0-3.307-.541-4.693-1.653-3.606-2.897-7.4-5.648-11.277-8.176-3.47-2.262-4.449-6.908-2.186-10.378s6.91-4.447 10.378-2.185c4.29 2.797 8.489 5.841 12.48 9.047 3.229 2.595 3.743 7.315 1.149 10.543-1.481 1.844-3.656 2.802-5.851 2.802zm-152.231-20.03c-2.882 0-5.629-1.67-6.866-4.476-1.671-3.79.047-8.216 3.837-9.887 4.69-2.068 9.535-3.922 14.4-5.509 3.937-1.285 8.171.865 9.457 4.802 1.285 3.937-.865 8.171-4.802 9.457-4.393 1.434-8.768 3.107-13.003 4.974-.985.433-2.012.639-3.023.639zm109.763-3.81c-.843 0-1.701-.144-2.54-.445-4.35-1.566-8.831-2.931-13.316-4.054-4.018-1.007-6.459-5.08-5.452-9.098 1.007-4.016 5.081-6.459 9.097-5.452 4.969 1.245 9.933 2.757 14.753 4.492 3.897 1.403 5.919 5.7 4.515 9.597-1.102 3.057-3.984 4.96-7.057 4.96zm-62.582-8.189c-3.86 0-7.139-2.962-7.465-6.878-.344-4.128 2.724-7.753 6.852-8.096 5.089-.423 10.294-.602 15.393-.525 4.142.061 7.45 3.467 7.389 7.608-.06 4.104-3.406 7.39-7.496 7.39-.038 0-.075 0-.112-.001-4.632-.063-9.328.092-13.93.477-.213.018-.423.025-.631.025z" fill="#3d4fc3"/></g><g fill="#3d4fc3"><path d="m265.452 246.366c-4.142 0-7.5 3.357-7.5 7.5v76.666c0 4.143 3.358 7.5 7.5 7.5s7.5-3.357 7.5-7.5v-76.666c0-4.143-3.358-7.5-7.5-7.5z"/><path d="m340.122 261.926c4.142 0 7.5-3.357 7.5-7.5 0-4.142-3.358-7.5-7.5-7.5h-30.846c-4.142 0-7.5 3.357-7.5 7.5v76.104c0 4.143 3.358 7.5 7.5 7.5s7.5-3.357 7.5-7.5v-31.274h20.896c4.142 0 7.5-3.357 7.5-7.5 0-4.142-3.358-7.5-7.5-7.5h-20.896v-22.332h23.346z"/><path d="m228.488 284.699h-22.934c-4.142 0-7.5 3.357-7.5 7.5s3.358 7.5 7.5 7.5h14.804c-2.054 11.975-9.34 23.334-24.961 23.334-17.002 0-30.833-13.831-30.833-30.833s13.832-30.833 30.833-30.833c6.18 0 12.14 1.819 17.234 5.261 3.431 2.316 8.094 1.416 10.413-2.016s1.416-8.094-2.016-10.414c-7.583-5.124-16.446-7.832-25.631-7.832-25.272 0-45.833 20.561-45.833 45.832 0 25.272 20.56 45.833 45.833 45.833 23.899 0 40.591-18.847 40.591-45.833 0-4.142-3.358-7.499-7.5-7.499z"/></g></g></svg>